<?xml version="1.0" encoding="UTF-8"?>
<svg xmlns="http://www.w3.org/2000/svg" viewBox="0 0 15.59 15.59">
  <defs>
    <style>
      .cls-1 {
        fill: #fff;
      }

      .cls-2 {
        fill: #071f39;
      }
    </style>
  </defs>
  <g id="Cirkel">
    <rect class="cls-2" x="0" y="0" width="15.59" height="15.59" rx="7.8" ry="7.8"/>
  </g>
  <g id="ICONS">
    <path class="cls-1" d="M9.61,8.33s.09.01.14,0c.16-.02.27-.11.28-.26.01-.16-.07-.31-.28-.34l-1.3-.18c-.18-.03-.34.1-.36.28l-.49,1.92-1.99,1.38c.1.09.19.15.3.18h.41c.13-.04.22-.12.35-.23.23-.2.54-.47,1.12-.47s.9.27,1.13.47c.13.11.23.19.35.23h.2l-.64-2.96.77-.03Z"/>
    <path class="cls-1" d="M12.84,11.89c-.3,0-.43-.11-.63-.29-.23-.2-.51-.45-1.05-.45s-.83.25-1.05.45c-.2.17-.33.29-.63.29s-.43-.11-.63-.29c-.23-.2-.51-.45-1.05-.45s-.83.25-1.05.45c-.2.17-.33.29-.63.29s-.43-.11-.63-.29c-.23-.2-.51-.45-1.06-.45s-.83.25-1.06.45c-.2.17-.33.29-.63.29-.18,0-.32.15-.32.32s.15.32.32.32c.54,0,.83-.25,1.06-.45.2-.17.33-.29.63-.29s.43.11.63.29c.23.2.51.45,1.06.45s.83-.25,1.05-.45c.2-.17.33-.29.63-.29s.43.11.63.29c.23.2.51.45,1.05.45s.83-.25,1.05-.45c.2-.17.33-.29.63-.29s.43.11.63.29c.23.2.51.45,1.05.45.18,0,.32-.15.32-.32s-.15-.32-.32-.32Z"/>
    <path class="cls-1" d="M10.36,10.23c.39-.09.62-.48.53-.87-.09-.39-.48-.62-.87-.53-.39.09-.62.48-.53.87.09.39.48.62.87.53Z"/>
    <path class="cls-1" d="M9.88,3.97l-.68.26-.8-.47.8-.47.68.26c.15.05.31-.02.37-.16.05-.15-.02-.31-.16-.37l-.25-.1.26-.15c.07-.04.11-.1.13-.17.02-.07,0-.15-.03-.21-.04-.07-.1-.11-.17-.13-.07-.02-.15,0-.21.03l-.26.15.04-.27c.01-.07,0-.15-.05-.21-.05-.06-.11-.1-.19-.11-.08-.01-.15,0-.21.05-.06.04-.1.11-.11.18l-.11.72-.82.47v-.94l.56-.45c.12-.1.14-.28.04-.4-.1-.12-.28-.14-.4-.04l-.21.17v-.3c0-.16-.13-.28-.28-.28s-.28.13-.28.28v.3l-.21-.17c-.06-.05-.13-.07-.21-.06-.07,0-.14.05-.19.1-.05.06-.07.13-.06.21,0,.07.05.14.1.19l.56.45v.92l-.82-.48-.11-.72c-.02-.15-.16-.26-.32-.24-.09.01-.16.06-.2.14-.03.06-.05.12-.04.18l.04.27-.2-.12c-.07-.04-.14-.05-.21-.03-.07.02-.13.07-.17.13-.04.07-.05.14-.03.21.02.07.07.13.13.17l.2.12-.25.1c-.06.02-.11.07-.14.12-.04.07-.05.16-.02.24.03.07.08.13.15.16.07.03.15.03.22,0l.68-.26.84.5-.84.49-.67-.26c-.15-.05-.31.02-.37.16-.03.08-.02.17.02.24.03.06.08.1.14.12l.25.1-.2.12c-.07.04-.11.1-.13.17s0,.15.03.21c.04.07.1.11.17.13.07.02.15,0,.21-.03l.2-.12-.04.27c-.01.06,0,.13.04.19.04.07.12.12.2.14.07.01.15,0,.21-.05.06-.05.1-.11.11-.19l.11-.72.82-.47v.94l-.56.45c-.12.1-.14.28-.04.4.09.11.28.13.4.04l.21-.17v.23c0,.16.13.28.28.28s.28-.13.28-.28v-.23l.21.17c.11.09.3.07.4-.04.1-.12.08-.3-.04-.4l-.56-.45v-.96l.81.47.11.72c.02.15.16.26.32.24.15-.02.26-.17.24-.32l-.04-.27.26.15c.14.08.31.03.39-.1.08-.13.03-.31-.1-.39l-.26-.15.25-.1c.07-.03.13-.08.16-.15.03-.07.03-.15,0-.22-.03-.07-.08-.13-.15-.16-.07-.03-.15-.03-.21,0Z"/>
  </g>
</svg>